<svg width="203" height="161" fill="none" xmlns="http://www.w3.org/2000/svg"><path fill-rule="evenodd" clip-rule="evenodd" d="M35.066 133.237h27.101l4.324 10.701a2.5 2.5 0 00.762 1.027c.332.249.746.381 1.243.381h3.213c.497 0 .895-.099 1.21-.298.315-.199.464-.497.464-.894 0-.15-.05-.332-.133-.547l-.073-.201c-.038-.102-.06-.159-.06-.18L51.649 91.375a5.439 5.439 0 00-.53-.895c-.248-.314-.663-.48-1.292-.48h-2.203c-.663 0-1.127.166-1.359.48-.232.332-.397.63-.497.895l-.033.116-.049.12a35.36 35.36 0 00-.249.609l-.339.785v.002l-.002.003v.002h-.001l-.486 1.13c-.377.85-.883 2.09-1.534 3.687l-.023.056c-.68 1.624-1.541 3.678-2.585 6.163a1895.321 1895.321 0 00-3.826 9.194l-.27.646a2580.798 2580.798 0 00-5.081 12.209c-2.054 4.936-4.423 10.635-7.107 17.096a.79.79 0 00-.116.265c-.05.248-.066.48-.066.696 0 .795.53 1.192 1.607 1.192h3.197c.978 0 1.657-.497 2.054-1.491l4.208-10.618zm13.65-33.612l10.834 27.284h-21.8l10.966-27.284zm69.046 15.754c.994-1.011 1.756-2.203 2.336-3.562.58-1.342.861-2.766.861-4.257a10.63 10.63 0 00-.861-4.258 11.999 11.999 0 00-2.352-3.561c-.994-1.027-2.17-1.84-3.529-2.452-1.375-.613-2.833-.911-4.406-.911H93.079v22.33h16.848c1.557 0 3.015-.298 4.356-.894 1.342-.613 2.502-1.408 3.479-2.435zm-31.127 28.327c0 1.094.53 1.64 1.64 1.64h3.164c1.094 0 1.64-.546 1.64-1.64V125.07h15.986c.497 0 .895 0 1.193-.017.298-.016.58-.033.861-.083l9.012 18.968c.199.447.447.795.729 1.044.282.248.679.364 1.176.364h3.761c.43 0 .762-.083.993-.281.232-.183.348-.415.348-.68 0-.149-.049-.381-.182-.679l-9.807-20.193a17.214 17.214 0 004.142-2.668c1.242-1.076 2.302-2.319 3.213-3.694.895-1.375 1.574-2.866 2.088-4.489.497-1.623.745-3.297.745-5.069 0-2.419-.464-4.688-1.375-6.825-.894-2.137-2.137-4.01-3.727-5.6-1.574-1.606-3.429-2.865-5.55-3.793-2.12-.911-4.406-1.375-6.874-1.375H88.275c-.514 0-.895.15-1.193.464-.314.315-.447.745-.447 1.325v51.917zm91.775-53.292a1.837 1.837 0 00-1.193-.414h-38.35c-.513 0-.911.15-1.226.447-.298.299-.464.696-.464 1.193v3.048c0 .63.166 1.077.464 1.375.315.282.713.43 1.226.43h15.986v47.18c0 .497.149.895.48 1.209.332.315.729.464 1.226.464h3.032c.563 0 .994-.149 1.275-.48.282-.331.431-.713.431-1.193v-47.18h15.92c.563 0 1.01-.181 1.325-.53.298-.347.464-.761.464-1.275V91.64c-.05-.547-.249-.96-.596-1.226zM44.925 18.673l17.94 43.982 17.858-44.611c.116-.332.282-.58.514-.762a1.28 1.28 0 01.828-.282h4.125c.48 0 .812.1 1.01.298.2.199.299.464.299.829 0 .149-.034.33-.116.596L78.85 39.248c1.624 3.926 3.23 7.835 4.82 11.712 1.133 2.73 2.265 5.47 3.403 8.223l1.435 3.472c2.773-6.848 5.56-13.655 8.336-20.431l.676-1.65a5037.844 5037.844 0 009.028-22.116c.199-.447.447-.812.746-1.06.298-.265.712-.398 1.259-.398h3.131c.53 0 .927.1 1.192.298.282.199.414.464.414.829a1.306 1.306 0 01-.033.248l-.026.086c-.019.06-.034.111-.057.146l-21.684 52.1a.63.63 0 01-.15.297l-.115.232c-.083.15-.166.298-.298.464a1.957 1.957 0 01-.514.447 1.573 1.573 0 01-.795.2h-2.27c-.646 0-1.093-.166-1.358-.498-.265-.331-.414-.646-.464-.91L75.538 47.05l-9.873 23.656c-.133.597-.398 1.027-.829 1.276-.43.248-.828.364-1.225.364H61.59c-.299 0-.547-.05-.746-.165a2.434 2.434 0 01-.513-.381 3.07 3.07 0 01-.365-.48 4.513 4.513 0 01-.199-.415L38.116 18.723a.613.613 0 00-.066-.249 1.263 1.263 0 01-.05-.348c0-.762.464-1.126 1.375-1.126h3.628c.845 0 1.474.563 1.922 1.673zm81.718.05c0-1.16.547-1.723 1.64-1.723h35.865c1.11 0 1.673.58 1.673 1.756v3.015c0 .447-.149.845-.447 1.193-.298.348-.729.53-1.309.53h-30.961V39.96h24.633c.448 0 .829.133 1.16.414.315.265.48.696.48 1.309v3.048c0 .447-.132.845-.414 1.193-.281.348-.679.513-1.226.513h-24.633V65.87h31.309c1.11 0 1.673.58 1.673 1.756v3.081c0 1.094-.546 1.64-1.64 1.64h-36.163c-1.093 0-1.64-.513-1.64-1.557V18.723z" fill="#fff"/></svg>