<svg width="14" height="14" xmlns="http://www.w3.org/2000/svg"><path fill-rule="evenodd" clip-rule="evenodd" d="M4.375 0h5.25A4.375 4.375 0 0114 4.375v5.25A4.375 4.375 0 019.625 14h-5.25A4.375 4.375 0 010 9.625v-5.25A4.375 4.375 0 014.375 0zm5.25 12.688a3.066 3.066 0 003.063-3.063v-5.25a3.066 3.066 0 00-3.063-3.063h-5.25a3.066 3.066 0 00-3.063 3.063v5.25a3.066 3.066 0 003.063 3.063h5.25z"/><path fill-rule="evenodd" clip-rule="evenodd" d="M3.5 7a3.5 3.5 0 117 0 3.5 3.5 0 01-7 0zm1.313 0A2.19 2.19 0 007 9.188 2.19 2.19 0 009.188 7 2.19 2.19 0 007 4.812 2.19 2.19 0 004.812 7z"/><circle cx="10.762" cy="3.237" r=".466"/></svg>