<svg width="13" height="15" xmlns="http://www.w3.org/2000/svg"><path d="M6.297 0C2.187 0 0 2.634 0 5.507 0 6.839.744 8.5 1.936 9.027c.181.082.28.047.32-.12.035-.128.192-.742.268-1.032a.265.265 0 00-.064-.26c-.396-.458-.71-1.292-.71-2.073 0-2.004 1.593-3.95 4.304-3.95 2.343 0 3.983 1.523 3.983 3.701 0 2.461-1.302 4.164-2.994 4.164-.937 0-1.634-.735-1.413-1.645.267-1.083.791-2.247.791-3.028 0-.7-.396-1.28-1.204-1.28-.953 0-1.727.944-1.727 2.212 0 .805.285 1.349.285 1.349s-.943 3.81-1.118 4.522c-.296 1.204.04 3.155.07 3.323.017.093.121.122.18.046.092-.122 1.232-1.748 1.552-2.924.116-.429.593-2.166.593-2.166.314.567 1.22 1.043 2.187 1.043 2.872 0 4.948-2.525 4.948-5.658C12.177 2.247 9.606 0 6.297 0z"/></svg>